<mxfile host="app.diagrams.net" modified="2023-05-18T15:09:30.935Z" agent="Mozilla/5.0 (Windows NT 10.0; Win64; x64) AppleWebKit/537.36 (KHTML, like Gecko) Chrome/113.0.0.0 Safari/537.36 Edg/113.0.1774.42" version="21.3.2" etag="Z-23IfOk7vlX7Lbc3Hga" type="github">
  <diagram name="Trang-1" id="_G8nZgH0jlVvLT6vgpBx">
    <mxGraphModel>
      <root>
        <mxCell id="0" />
        <mxCell id="1" parent="0" />
      </root>
    </mxGraphModel>
  </diagram>
</mxfile>
